<?xml version="1.0"?>
<svg width="374.99999999999994" height="374.9999910000001" xmlns="http://www.w3.org/2000/svg" xmlns:svg="http://www.w3.org/2000/svg" preserveAspectRatio="xMidYMid meet" version="1.0">
 <defs>
  <clipPath id="17ec3eec98">
   <path clip-rule="nonzero" d="m112.5,112.5l150,0l0,150l-150,0l0,-150zm0,0" id="svg_1"/>
  </clipPath>
 </defs>
 <g class="layer" display="inline">
  <title>Layer 1</title>
  <path d="m163.34,283.61c-4.2,0.42 -7.57,0.91 -10.95,1.08c-19.1,0.96 -33.27,-6.96 -41.85,-25.37c-2.73,-5.88 -6.23,-11.41 -9.88,-16.72c-2.19,-3.21 -5.25,-5.76 -8.09,-8.43l-0.04,-0.02c-1.74,-1.62 -0.98,-4.64 1.34,-5.06c2.68,-0.47 5.21,0.05 7.66,0.7c7.69,2.06 12.62,7.75 16.56,14.59c8.89,15.46 24.2,21.9 40.75,17.31c2.82,-0.8 4.04,-2.06 4.67,-5.27c0.71,-3.75 1.68,-7.45 2.73,-11.22c0.16,-0.54 0.25,-1.1 0.29,-1.69c0.04,-0.59 0.02,-1.15 -0.02,-1.73c-0.07,-0.56 -0.2,-1.12 -0.38,-1.66c-0.16,-0.56 -0.4,-1.08 -0.67,-1.57c-0.29,-0.52 -0.6,-0.96 -0.98,-1.41c-0.36,-0.42 -0.76,-0.82 -1.21,-1.15c-0.45,-0.35 -0.92,-0.66 -1.41,-0.89c-0.51,-0.23 -1.03,-0.42 -1.56,-0.56l-0.09,-0.02c-17.18,-4.31 -32.02,-12.32 -41.58,-28.79c-5.12,-8.81 -7.64,-18.5 -7.53,-28.6c0.16,-11.45 1.12,-22.96 2.39,-34.34c0.87,-8.03 4.42,-15.13 9.92,-20.92c1.92,-1.99 2.08,-3.68 1.16,-6.28c-3.8,-10.68 -3.13,-21.36 0.22,-32.04c0.96,-3.02 2.3,-3.44 5.05,-2.53c8.51,2.81 14.86,8.62 20.44,15.55l0.07,0.09c0.69,0.87 1.5,1.62 2.41,2.25c0.92,0.63 1.9,1.1 2.97,1.43c1.05,0.33 2.12,0.47 3.22,0.45c1.09,0 2.17,-0.19 3.22,-0.56c17.65,-6.07 44.46,-6.14 61.13,-0.14c1.03,0.37 2.1,0.59 3.22,0.61c1.09,0.02 2.19,-0.09 3.24,-0.42c1.07,-0.3 2.08,-0.77 2.99,-1.41c0.94,-0.63 1.74,-1.41 2.46,-2.3l0.04,-0.07c5.61,-6.96 11.98,-12.72 20.49,-15.53c2.86,-0.94 4.07,-0.21 4.98,2.69c3.31,10.68 3.87,21.32 0.29,32.07c-0.51,1.52 -0.49,4.17 0.42,5.13c7.62,8.1 10.95,18.18 11.8,29.09c0.83,10.54 1.72,21.25 0.78,31.72c-2.44,27.22 -18.23,43.08 -42.23,50.97c-2.06,0.68 -4.16,1.22 -6.28,1.76c-0.54,0.14 -1.07,0.33 -1.59,0.59c-0.51,0.26 -1.01,0.56 -1.47,0.91c-0.45,0.37 -0.85,0.77 -1.23,1.24c-0.36,0.45 -0.69,0.94 -0.96,1.45c-0.29,0.54 -0.49,1.08 -0.67,1.64c-0.16,0.56 -0.27,1.15 -0.31,1.76c-0.04,0.59 -0.02,1.19 0.04,1.78c0.07,0.59 0.2,1.17 0.38,1.73c3.26,9.93 2.77,20.54 2.73,31.11c-0.02,2.41 -0.02,4.85 -0.02,7.26c-0.02,2.01 -0.2,4.01 -0.58,5.97c-0.38,1.97 -0.94,3.86 -1.68,5.72c-0.74,1.87 -1.63,3.63 -2.7,5.29c-1.05,1.66 -2.26,3.21 -3.62,4.61c-1.36,1.43 -2.84,2.69 -4.42,3.82c-1.59,1.1 -3.28,2.04 -5.05,2.81c-1.76,0.77 -3.6,1.36 -5.47,1.73c-1.88,0.4 -3.78,0.59 -5.7,0.59l-0.65,0c-1.92,0 -3.82,-0.19 -5.7,-0.59c-1.88,-0.37 -3.71,-0.96 -5.47,-1.73c-1.79,-0.77 -3.46,-1.71 -5.05,-2.83c-1.61,-1.12 -3.08,-2.39 -4.42,-3.79c-1.36,-1.43 -2.57,-2.97 -3.64,-4.64c-1.07,-1.69 -1.97,-3.44 -2.7,-5.32c-0.74,-1.85 -1.27,-3.77 -1.65,-5.74c-0.38,-1.97 -0.56,-3.96 -0.56,-5.97l0,-0.19zm0,0" fill="#000000" fill-rule="nonzero" id="svg_4"/>
  <g clip-path="url(#17ec3eec98)" id="svg_2" transform="translate(-44.2857 -24.2857) matrix(2.46776 0 0 2.46768 -230.419 -250.405)">
   <path d="m187.5,112.5c-41.42,0 -75,33.58 -75,75c0,41.42 33.58,75 75,75c41.42,0 75,-33.58 75,-75c0,-41.42 -33.58,-75 -75,-75zm0,144.32c-38.29,0 -69.32,-31.03 -69.32,-69.32c0,-38.29 31.03,-69.32 69.32,-69.32c38.29,0 69.32,31.03 69.32,69.32c0,38.29 -31.03,69.32 -69.32,69.32zm0,0" fill="#000000" fill-rule="nonzero" id="svg_3" stroke-width="10"/>
  </g>
  <line fill="none" id="svg_6" x1="74" x2="91" y1="79" y2="165"/>
  <line fill="none" id="svg_7" opacity="0.5" x1="68" x2="68" y1="155" y2="155"/>
  <g clip-path="url(#17ec3eec98)" id="svg_8" transform="translate(-2.85714 0.714286) matrix(2.38238 0 0 2.36806 -255.838 -257.084)">
   <path d="m187.5,112.5c-41.42,0 -75,33.58 -75,75c0,41.42 33.58,75 75,75c41.42,0 75,-33.58 75,-75c0,-41.42 -33.58,-75 -75,-75zm0,144.32c-38.29,0 -69.32,-31.03 -69.32,-69.32c0,-38.29 31.03,-69.32 69.32,-69.32c38.29,0 69.32,31.03 69.32,69.32c0,38.29 -31.03,69.32 -69.32,69.32zm0,0" fill="#000000" fill-rule="nonzero" id="svg_9" stroke-width="10"/>
  </g>
  <g clip-path="url(#17ec3eec98)" id="svg_10" transform="translate(-2.85714 0.714286) matrix(2.38238 0 0 2.36806 -255.838 -257.084)">
   <path d="m187.5,112.5c-41.42,0 -75,33.58 -75,75c0,41.42 33.58,75 75,75c41.42,0 75,-33.58 75,-75c0,-41.42 -33.58,-75 -75,-75zm0,144.32c-38.29,0 -69.32,-31.03 -69.32,-69.32c0,-38.29 31.03,-69.32 69.32,-69.32c38.29,0 69.32,31.03 69.32,69.32c0,38.29 -31.03,69.32 -69.32,69.32zm0,0" fill="#000000" fill-rule="nonzero" id="svg_11" stroke-width="10"/>
  </g>
  <g clip-path="url(#17ec3eec98)" id="svg_12" transform="translate(20.2578 20.9647) scale(1 1.00604) translate(-20.2578 -20.9647) translate(20.2488 20.9647) matrix(2.22324 0 0 2.19569 -249.106 -246.015)">
   <path d="m187.5,112.5c-41.42,0 -75,33.58 -75,75c0,41.42 33.58,75 75,75c41.42,0 75,-33.58 75,-75c0,-41.42 -33.58,-75 -75,-75zm0,144.32c-38.29,0 -69.32,-31.03 -69.32,-69.32c0,-38.29 31.03,-69.32 69.32,-69.32c38.29,0 69.32,31.03 69.32,69.32c0,38.29 -31.03,69.32 -69.32,69.32zm0,0" fill="#000000" fill-rule="nonzero" id="svg_13" stroke-width="10"/>
  </g>
 </g>
</svg>