<?xml version="1.0"?>
<svg width="375" height="374.999991" xmlns="http://www.w3.org/2000/svg" xmlns:svg="http://www.w3.org/2000/svg" preserveAspectRatio="xMidYMid meet" version="1.0">
 <defs>
  <clipPath id="c7eba49565">
   <path clip-rule="nonzero" d="m112.5,112.5l150,0l0,150l-150,0l0,-150zm0,0" id="svg_1"/>
  </clipPath>
 </defs>
 <g class="layer" display="inline">
  <title>Layer 1</title>
  <g id="svg_8" transform="translate(372.635 371.893) scale(0.993966 0.989963) translate(-372.635 -371.893) translate(1.30598 -0.186563) matrix(2.46349 0 0 2.46852 -276.084 -276.654)">
   <path d="m147.47,166.9l11.09,0c0.29,0 0.56,0.05 0.82,0.16c0.26,0.11 0.49,0.26 0.69,0.46c0.2,0.2 0.35,0.43 0.46,0.69c0.11,0.27 0.16,0.54 0.16,0.82l0,61.02c0,0.29 -0.05,0.56 -0.16,0.82c-0.11,0.26 -0.26,0.49 -0.46,0.69c-0.2,0.2 -0.43,0.35 -0.69,0.46c-0.26,0.11 -0.53,0.16 -0.82,0.16l-11.09,0c-0.28,0 -0.56,-0.05 -0.81,-0.16c-0.27,-0.11 -0.5,-0.26 -0.7,-0.46c-0.19,-0.2 -0.35,-0.43 -0.46,-0.69c-0.11,-0.26 -0.16,-0.53 -0.16,-0.82l0,-61.02c0,-0.28 0.05,-0.55 0.16,-0.82c0.11,-0.26 0.27,-0.49 0.46,-0.69c0.2,-0.2 0.43,-0.35 0.7,-0.46c0.25,-0.11 0.53,-0.16 0.81,-0.16zm0,0" fill="#ffffff" fill-rule="nonzero" id="svg_2"/>
   <path d="m161.95,151.85c-0.01,-5.24 -3.77,-9.03 -8.93,-9.03c-5.17,0 -9.07,3.89 -9.07,9.06c0,2.41 0.88,4.64 2.47,6.3c1.64,1.7 3.89,2.64 6.35,2.64c2.71,0 5.14,-0.96 6.83,-2.71c1.58,-1.64 2.42,-3.84 2.35,-6.23c0,-0.01 0,-0.02 0,-0.03zm0,0" fill="#ffffff" fill-rule="nonzero" id="svg_3"/>
   <path d="m222.72,171.2c-5.52,-4.95 -11.99,-5.68 -15.36,-5.68c-5.04,0 -9.83,1.34 -13.87,3.88c-1.77,1.12 -3.36,2.44 -4.79,3.96l-0.28,-4.47c-0.01,-0.27 -0.08,-0.53 -0.19,-0.77c-0.12,-0.25 -0.28,-0.46 -0.48,-0.65c-0.19,-0.18 -0.42,-0.33 -0.67,-0.42c-0.25,-0.1 -0.51,-0.16 -0.78,-0.15l-9.83,0c-0.3,0 -0.58,0.06 -0.85,0.17c-0.28,0.12 -0.51,0.29 -0.71,0.51c-0.2,0.21 -0.35,0.46 -0.45,0.74c-0.1,0.28 -0.14,0.57 -0.11,0.86c0.35,4.66 0.49,9.55 0.49,16.36l0,44.51c0,0.29 0.06,0.56 0.16,0.82c0.11,0.26 0.27,0.49 0.46,0.69c0.21,0.2 0.43,0.35 0.7,0.46c0.26,0.11 0.53,0.16 0.81,0.16l11.1,0c0.28,0 0.55,-0.05 0.81,-0.16c0.26,-0.11 0.49,-0.26 0.69,-0.46c0.2,-0.2 0.36,-0.43 0.46,-0.69c0.11,-0.26 0.17,-0.53 0.17,-0.82l0,-36.69c0,-1.72 0.22,-3.34 0.62,-4.44c0.02,-0.03 0.03,-0.07 0.04,-0.11c1.5,-4.89 6.05,-9.84 12.84,-9.84c4.2,0 7.22,1.44 9.23,4.39c1.8,2.68 2.76,6.66 2.76,11.52l0,35.17c0,0.29 0.06,0.56 0.16,0.82c0.11,0.26 0.26,0.49 0.47,0.69c0.2,0.2 0.43,0.35 0.68,0.46c0.27,0.11 0.54,0.16 0.82,0.16l11.09,0c0.29,0 0.56,-0.05 0.82,-0.16c0.26,-0.11 0.49,-0.26 0.69,-0.46c0.2,-0.2 0.35,-0.43 0.46,-0.69c0.11,-0.26 0.16,-0.53 0.16,-0.82l0,-36.44c0,-5.19 -0.78,-9.79 -2.33,-13.67c-1.39,-3.49 -3.41,-6.44 -5.99,-8.74zm0,0" fill="#ffffff" fill-rule="nonzero" id="svg_4"/>
   <g clip-path="url(#c7eba49565)" id="svg_5">
    <path d="m242.97,112.5l-110.94,0c-10.77,0 -19.53,8.76 -19.53,19.53l0,110.94c0,10.77 8.76,19.53 19.53,19.53l110.94,0c10.77,0 19.53,-8.76 19.53,-19.53l0,-110.94c0,-10.77 -8.76,-19.53 -19.53,-19.53zm5.82,20.47l0,109.06c0,0.44 -0.05,0.88 -0.13,1.31c-0.09,0.44 -0.22,0.86 -0.39,1.27c-0.17,0.41 -0.38,0.8 -0.63,1.17c-0.24,0.37 -0.52,0.71 -0.84,1.02c-0.31,0.32 -0.65,0.6 -1.02,0.84c-0.37,0.25 -0.76,0.46 -1.17,0.63c-0.41,0.17 -0.83,0.3 -1.27,0.39c-0.43,0.08 -0.87,0.13 -1.31,0.13l-109.06,0c-0.44,0 -0.88,-0.05 -1.31,-0.13c-0.44,-0.09 -0.86,-0.22 -1.27,-0.39c-0.41,-0.17 -0.8,-0.38 -1.17,-0.63c-0.37,-0.24 -0.71,-0.52 -1.02,-0.84c-0.32,-0.31 -0.6,-0.65 -0.84,-1.02c-0.25,-0.37 -0.46,-0.76 -0.63,-1.17c-0.17,-0.41 -0.3,-0.83 -0.39,-1.27c-0.08,-0.43 -0.13,-0.87 -0.13,-1.31l0,-109.06c0,-0.44 0.05,-0.88 0.13,-1.31c0.09,-0.44 0.22,-0.86 0.39,-1.27c0.17,-0.41 0.38,-0.8 0.63,-1.17c0.24,-0.37 0.52,-0.71 0.84,-1.02c0.31,-0.32 0.65,-0.6 1.02,-0.84c0.37,-0.25 0.76,-0.46 1.17,-0.63c0.41,-0.17 0.83,-0.3 1.27,-0.39c0.43,-0.08 0.87,-0.13 1.31,-0.13l109.06,0c0.44,0 0.88,0.05 1.31,0.13c0.44,0.09 0.86,0.22 1.27,0.39c0.41,0.17 0.8,0.38 1.17,0.63c0.37,0.24 0.71,0.52 1.02,0.84c0.32,0.31 0.6,0.65 0.84,1.02c0.25,0.37 0.46,0.76 0.63,1.17c0.17,0.41 0.3,0.83 0.39,1.27c0.08,0.43 0.13,0.87 0.13,1.31zm0,0" fill="#ffffff" fill-rule="nonzero" id="svg_6"/>
   </g>
  </g>
 </g>
</svg>