<?xml version="1.0"?>
<svg width="375" height="374.999991" xmlns="http://www.w3.org/2000/svg" xmlns:svg="http://www.w3.org/2000/svg" preserveAspectRatio="xMidYMid meet" version="1.0">
 <defs>
  <clipPath id="415edd9f1c">
   <path clip-rule="nonzero" d="m113,115l146,0l0,146.48l-146,0l0,-146.48zm0,0" id="svg_1"/>
  </clipPath>
 </defs>
 <g class="layer" display="inline">
  <title>Layer 1</title>
  <g clip-path="url(#415edd9f1c)" id="svg_2" transform="translate(5.83541 5.46414) scale(0.997275 0.994545) translate(-5.83541 -5.46414) translate(372.748 372.058) matrix(2.5203 0 0 2.48994 -651.714 -652.06)">
   <path d="m253.36,158.54c-12.34,-27.77 -39.92,-44.81 -70.31,-43.41c-37.28,1.7 -67.87,32.33 -69.57,69.67c-0.93,20.24 6.23,39.43 20.15,54.01c13.92,14.61 32.7,22.67 52.87,22.67c10.15,0 19.98,-2.05 29.22,-6.07l5.79,-2.52l-5.03,-11.56l-5.79,2.52c-7.63,3.33 -15.76,5.01 -24.15,5.01c-16.7,0 -32.23,-6.65 -43.75,-18.75c-11.53,-12.09 -17.43,-27.97 -16.67,-44.72c1.43,-30.9 26.7,-56.23 57.55,-57.64c25.12,-1.14 47.96,12.95 58.17,35.94c6.9,15.52 3.86,33.77 -7.55,45.36c-3.65,3.72 -7.78,6.45 -12.28,8.15c-2.6,0.96 -4.62,-0.24 -5.38,-0.79c-0.76,-0.59 -2.52,-2.23 -2.28,-5.07l1.55,-19.56l3.15,-40.1l-12.57,-0.99l-0.7,8.75c-5.26,-5.91 -12.23,-9.78 -20.07,-10.39c-18.36,-1.44 -34.74,15.37 -36.46,37.49c-0.82,10.45 1.7,20.61 7.11,28.58c5.7,8.4 13.89,13.44 23.07,14.14c0.73,0.06 1.46,0.09 2.19,0.09c8.19,0 15.88,-3.6 21.88,-9.61c1.25,2.61 3.13,4.96 5.52,6.77c5,3.78 11.5,4.74 17.37,2.55c6.24,-2.32 11.91,-6.06 16.88,-11.1c15.24,-15.58 19.18,-38.87 10.09,-59.42zm-72.97,58.07c-5.26,-0.41 -10.12,-3.48 -13.62,-8.67c-3.81,-5.59 -5.56,-12.89 -4.98,-20.5c1.14,-14.61 10.74,-25.92 21.67,-25.92c0.42,0 0.82,0.03 1.26,0.06c11.44,0.91 19.77,13.97 18.6,29.14l0,0.03c-1.2,15.17 -11.49,26.77 -22.93,25.86zm0,0" fill="#ffffff" fill-rule="nonzero" id="svg_3"/>
  </g>
 </g>
</svg>